
      <svg data-logo="logo" xmlns="http://www.w3.org/2000/svg" viewBox="0 0 290 43">
        <g id="logogram" transform="translate(0, 1) rotate(0) "><path d="M0.452637 20.81C0.452637 9.76427 9.40694 0.809967 20.4526 0.809967H46.7026C57.7484 0.809967 66.7026 9.76427 66.7026 20.81V40.81H20.4526C9.40694 40.81 0.452637 31.8557 0.452637 20.81Z" fill="#4845D2"/><path d="M46.7026 8.30997H20.4526C13.5491 8.30997 7.95264 13.9064 7.95264 20.81C7.95264 27.7135 13.5491 33.31 20.4526 33.31H46.7026C53.6062 33.31 59.2026 27.7135 59.2026 20.81C59.2026 13.9064 53.6062 8.30997 46.7026 8.30997Z" fill="#A5B4FC"/><path d="M20.4526 27.06C23.9044 27.06 26.7026 24.2617 26.7026 20.81C26.7026 17.3582 23.9044 14.56 20.4526 14.56C17.0009 14.56 14.2026 17.3582 14.2026 20.81C14.2026 24.2617 17.0009 27.06 20.4526 27.06Z" fill="black"/><path d="M17.9526 19.56C18.643 19.56 19.2026 19.0003 19.2026 18.31C19.2026 17.6196 18.643 17.06 17.9526 17.06C17.2623 17.06 16.7026 17.6196 16.7026 18.31C16.7026 19.0003 17.2623 19.56 17.9526 19.56Z" fill="white"/><path d="M47.9526 27.06C51.4044 27.06 54.2026 24.2617 54.2026 20.81C54.2026 17.3582 51.4044 14.56 47.9526 14.56C44.5009 14.56 41.7026 17.3582 41.7026 20.81C41.7026 24.2617 44.5009 27.06 47.9526 27.06Z" fill="black"/><path d="M45.4526 19.56C46.143 19.56 46.7026 19.0003 46.7026 18.31C46.7026 17.6196 46.143 17.06 45.4526 17.06C44.7623 17.06 44.2026 17.6196 44.2026 18.31C44.2026 19.0003 44.7623 19.56 45.4526 19.56Z" fill="white"/></g>
        <g id="logotype" transform="translate(73, 8.5)"><path fill="#4845D2" d="M28.96 1.43L36.00 1.43L36.00 26L30.01 26L30.01 11.26L24.52 26L19.69 26L14.16 11.23L14.16 26L8.17 26L8.17 1.43L15.24 1.43L22.14 18.44L28.96 1.43ZM49.19 26.28Q46.32 26.28 44.03 25.05Q41.73 23.83 40.42 21.55Q39.11 19.28 39.11 16.23L39.11 16.23Q39.11 13.22 40.44 10.93Q41.77 8.64 44.08 7.41Q46.39 6.19 49.26 6.19L49.26 6.19Q52.13 6.19 54.44 7.41Q56.75 8.64 58.08 10.93Q59.41 13.22 59.41 16.23L59.41 16.23Q59.41 19.24 58.06 21.54Q56.72 23.83 54.39 25.05Q52.06 26.28 49.19 26.28L49.19 26.28ZM49.19 21.10Q50.91 21.10 52.11 19.84Q53.32 18.58 53.32 16.23L53.32 16.23Q53.32 13.89 52.15 12.63Q50.98 11.37 49.26 11.37L49.26 11.37Q47.51 11.37 46.36 12.61Q45.20 13.85 45.20 16.23L45.20 16.23Q45.20 18.58 46.34 19.84Q47.48 21.10 49.19 21.10L49.19 21.10ZM61.41 16.23Q61.41 13.19 62.65 10.91Q63.89 8.64 66.11 7.41Q68.34 6.19 71.21 6.19L71.21 6.19Q74.88 6.19 77.35 8.11Q79.81 10.04 80.59 13.54L80.59 13.54L74.22 13.54Q73.41 11.30 71.10 11.30L71.10 11.30Q69.46 11.30 68.48 12.58Q67.50 13.85 67.50 16.23L67.50 16.23Q67.50 18.61 68.48 19.89Q69.46 21.17 71.10 21.17L71.10 21.17Q73.41 21.17 74.22 18.93L74.22 18.93L80.59 18.93Q79.81 22.36 77.33 24.32Q74.84 26.28 71.21 26.28L71.21 26.28Q68.34 26.28 66.11 25.05Q63.89 23.83 62.65 21.55Q61.41 19.28 61.41 16.23L61.41 16.23ZM103.13 26L95.71 26L89.76 17.81L89.76 26L83.77 26L83.77 0.10L89.76 0.10L89.76 14.41L95.67 6.47L103.06 6.47L94.94 16.27L103.13 26ZM128.33 9.20L121.71 9.20Q121.05 7.97 119.80 7.33Q118.56 6.68 116.88 6.68L116.88 6.68Q113.98 6.68 112.23 8.59Q110.48 10.49 110.48 13.68L110.48 13.68Q110.48 17.07 112.31 18.98Q114.15 20.89 117.37 20.89L117.37 20.89Q119.58 20.89 121.10 19.77Q122.62 18.65 123.32 16.55L123.32 16.55L115.73 16.55L115.73 12.14L128.75 12.14L128.75 17.70Q128.08 19.95 126.49 21.87Q124.90 23.80 122.45 24.98Q120.00 26.18 116.92 26.18L116.92 26.18Q113.28 26.18 110.42 24.58Q107.57 22.99 105.98 20.16Q104.39 17.32 104.39 13.68L104.39 13.68Q104.39 10.04 105.98 7.19Q107.57 4.33 110.41 2.74Q113.24 1.15 116.88 1.15L116.88 1.15Q121.29 1.15 124.32 3.28Q127.35 5.42 128.33 9.20L128.33 9.20ZM150.48 15.92Q150.48 16.76 150.38 17.67L150.38 17.67L136.83 17.67Q136.97 19.49 138.00 20.45Q139.04 21.41 140.54 21.41L140.54 21.41Q142.78 21.41 143.66 19.52L143.66 19.52L150.03 19.52Q149.54 21.45 148.26 22.99Q146.98 24.53 145.06 25.41Q143.13 26.28 140.75 26.28L140.75 26.28Q137.88 26.28 135.64 25.05Q133.40 23.83 132.14 21.55Q130.88 19.28 130.88 16.23L130.88 16.23Q130.88 13.19 132.12 10.91Q133.37 8.64 135.61 7.41Q137.85 6.19 140.75 6.19L140.75 6.19Q143.59 6.19 145.79 7.38Q148.00 8.57 149.24 10.77Q150.48 12.98 150.48 15.92L150.48 15.92ZM136.87 14.34L144.36 14.34Q144.36 12.80 143.31 11.89Q142.26 10.98 140.68 10.98L140.68 10.98Q139.18 10.98 138.14 11.86Q137.11 12.73 136.87 14.34L136.87 14.34ZM165.53 6.26Q168.96 6.26 171.01 8.48Q173.06 10.70 173.06 14.59L173.06 14.59L173.06 26L167.11 26L167.11 15.39Q167.11 13.43 166.09 12.35Q165.08 11.26 163.36 11.26L163.36 11.26Q161.65 11.26 160.63 12.35Q159.62 13.43 159.62 15.39L159.62 15.39L159.62 26L153.63 26L153.63 6.47L159.62 6.47L159.62 9.06Q160.53 7.76 162.07 7.01Q163.61 6.26 165.53 6.26L165.53 6.26ZM201.41 26L199.94 21.66L190.77 21.66L189.30 26L183.03 26L191.92 1.43L198.85 1.43L207.74 26L201.41 26ZM192.34 17.04L198.40 17.04L195.35 8.04L192.34 17.04ZM210.44 1.43L216.42 1.43L216.42 26L210.44 26L210.44 1.43Z"/></g>
        
      </svg>
    